<?xml version="1.0" standalone="no"?>
<!DOCTYPE svg PUBLIC "-//W3C//DTD SVG 20010904//EN"
 "http://www.w3.org/TR/2001/REC-SVG-20010904/DTD/svg10.dtd">
<svg version="1.0" xmlns="http://www.w3.org/2000/svg"
 width="480.000000pt" height="480.000000pt" viewBox="0 0 480.000000 480.000000"
 preserveAspectRatio="xMidYMid meet">
<metadata>
Created by potrace 1.11, written by Peter Selinger 2001-2013
</metadata>
<g transform="translate(0.000000,480.000000) scale(0.100000,-0.100000)"
fill="#000000" stroke="none">
<path d="M3040 4386 c-133 -37 -273 -161 -420 -371 -182 -261 -231 -305 -334
-305 -121 1 -266 41 -956 266 -595 195 -750 237 -880 238 -133 1 -186 -30
-161 -95 16 -41 47 -66 143 -116 114 -58 182 -123 228 -216 40 -83 66 -105
167 -147 120 -50 162 -85 182 -150 15 -49 73 -102 163 -149 l78 -40 -33 -24
c-17 -13 -72 -52 -121 -87 -303 -216 -609 -518 -722 -711 -17 -30 -55 -94 -84
-144 -29 -49 -99 -153 -155 -231 -143 -196 -155 -223 -115 -259 17 -16 33 -17
122 -12 108 6 135 11 468 82 113 25 282 61 375 80 230 49 453 107 549 144 44
17 81 29 84 27 15 -15 -390 -571 -912 -1251 -350 -457 -389 -515 -338 -515 60
0 335 200 610 443 l123 109 -64 -104 c-69 -112 -92 -167 -82 -198 15 -48 70
-15 264 163 77 70 142 127 145 127 2 0 -7 -28 -20 -61 -29 -71 -22 -92 23 -68
38 19 288 269 345 344 25 33 71 103 103 155 81 134 157 232 255 330 107 108
212 185 441 330 231 144 319 209 437 324 168 162 281 332 341 512 39 116 51
211 52 402 0 95 5 170 12 189 13 35 185 246 306 375 66 70 79 80 139 98 68 21
268 58 711 130 142 23 253 46 267 55 31 20 31 50 -2 71 -29 19 -92 18 -529
-11 -132 -9 -285 -15 -341 -13 l-101 3 -144 97 c-158 106 -263 160 -361 183
-75 18 -196 18 -258 1z"/>
</g>
</svg>
